<?xml version="1.0" encoding="UTF-8"?>
<svg width="700pt" height="700pt"  fill="#fff" version="1.1" viewBox="0 0 700 700" xmlns="http://www.w3.org/2000/svg" xmlns:xlink="http://www.w3.org/1999/xlink">
 <defs>
  <symbol id="b" overflow="visible">
   <path d="m0 0"/>
  </symbol>
  <symbol id="i" overflow="visible">
   <path d="m0 0"/>
  </symbol>
  <symbol id="a" overflow="visible">
   <path d="m0 0"/>
  </symbol>
  <symbol id="h" overflow="visible">
   <path d="m0 0"/>
  </symbol>
  <symbol id="g" overflow="visible">
   <path d="m0 0"/>
  </symbol>
  <symbol id="f" overflow="visible">
   <path d="m0 0"/>
  </symbol>
  <symbol id="e" overflow="visible">
   <path d="m0 0"/>
  </symbol>
  <symbol id="d" overflow="visible">
   <path d="m0 0"/>
  </symbol>
  <symbol id="c" overflow="visible">
   <path d="m0 0"/>
  </symbol>
  <symbol id="j" overflow="visible">
   <path d="m0 0"/>
  </symbol>
 </defs>
 <g>
  <path d="m283.61 205.81c1.4297-1.2812 2.7656-2.5391 3.9961-3.7695v-0.011719c10.953-10.953 18.52-23.746 20.52-36.855 1.9062-12.621-1.4023-25.703-11.984-37.848l-114.14 114.12c-22.332 22.332-34.434 51.484-35.043 80.617-0.59375 28.152 9.5508 56.328 31.551 78.328 32.332 32.332 72.164 32.293 114.81 32.266h3.8477v-0.027343h63.34c6.5078 0 12.422-2.6602 16.723-6.957 4.2852-4.3008 6.957-10.211 6.957-16.723 0-6.5078-2.6719-12.434-6.957-16.723-4.3008-4.3008-10.211-6.957-16.723-6.957h-16.984c-2.5938 0-4.6953-2.1016-4.6953-4.6953v-0.27734c0-2.5938 2.1016-4.6953 4.6953-4.6953h35.031c6.5078 0 12.422-2.6719 16.723-6.957 4.3008-4.3008 6.957-10.227 6.957-16.734 0-6.5078-2.6602-12.422-6.957-16.723-4.3008-4.2852-10.211-6.957-16.723-6.957h-35.031c-2.5938 0-4.6953-2.1016-4.6953-4.6953v-0.27734c0-2.5938 2.1016-4.6953 4.6953-4.6953h185.88c6.5078 0 12.434-2.6602 16.723-6.957 4.3008-4.3008 6.957-10.211 6.957-16.723 0-6.5078-2.6602-12.434-6.957-16.723-4.2852-4.3008-10.211-6.957-16.723-6.957h-185.88c-2.5938 0-4.6953-2.1016-4.6953-4.6953v-0.27734c0-2.5938 2.1016-4.6953 4.6953-4.6953h150.79c6.5078 0 12.422-2.6719 16.723-6.957 4.2852-4.3008 6.957-10.227 6.957-16.734 0-6.5078-2.6719-12.422-6.957-16.723-4.3008-4.2852-10.211-6.957-16.723-6.957h-207.76c-2.5938 0-4.6953-2.1016-4.6953-4.6953 0-1.4688 0.67578-2.793 1.7461-3.6523z" fill-rule="evenodd"/>
  <use x="70.003906" y="560.003906" xlink:href="#b"/>
  <use x="70.003906" y="560.003906" xlink:href="#i"/>
  <use x="70.003906" y="560.003906" xlink:href="#a"/>
  <use x="70.003906" y="560.003906" xlink:href="#h"/>
  <use x="70.003906" y="560.003906" xlink:href="#g"/>
  <use x="70.003906" y="560.003906" xlink:href="#f"/>
  <use x="70.003906" y="560.003906" xlink:href="#e"/>
  <use x="70.003906" y="560.003906" xlink:href="#a"/>
  <use x="70.003906" y="560.003906" xlink:href="#d"/>
  <use x="70.007813" y="560.003906" xlink:href="#b"/>
  <use x="70.007813" y="560.003906" xlink:href="#c"/>
  <use x="70.007813" y="560.003906" xlink:href="#j"/>
 </g>
</svg>
