<?xml version="1.0" encoding="UTF-8"?>
<svg width="700pt" height="700pt" fill="#fff" version="1.1" viewBox="0 0 700 700" xmlns="http://www.w3.org/2000/svg">
 <path d="m548.33 140c0-12.855-10.453-23.332-23.332-23.332s-23.332 10.477-23.332 23.332v105c0 6.4414-5.2266 11.668-11.668 11.668s-11.668-5.2266-11.668-11.668v-151.67c0-12.855-10.453-23.332-23.332-23.332s-23.332 10.477-23.332 23.332v151.67c0 6.4414-5.2266 11.668-11.668 11.668s-11.668-5.2266-11.668-11.668v-198.33c0-12.855-10.453-23.332-23.332-23.332s-23.332 10.477-23.332 23.332v198.33c0 6.4414-5.2266 11.668-11.668 11.668s-11.668-5.2266-11.668-11.668v-151.67c0-12.855-10.453-23.332-23.332-23.332s-23.332 10.477-23.332 23.332v245c0 4.0352-2.1016 7.793-5.5312 9.918-3.4062 2.125-7.7461 2.3086-11.34 0.51172l-81.035-40.508c-6.4648-3.2188-13.652-4.9219-20.863-4.9219-11.715 0-21.234 9.5195-21.234 21.234 0 5.8086 2.2148 11.152 6.2305 15.145l150.9 150.88c29.68 29.723 69.16 46.082 111.18 46.082h0.023438c70.746 0 128.33-57.562 128.33-128.33z"/>
</svg>
