<?xml version="1.0" encoding="UTF-8"?>
<svg width="700pt" height="700pt" fill="#fff" version="1.1" viewBox="0 0 700 700" xmlns="http://www.w3.org/2000/svg" xmlns:xlink="http://www.w3.org/1999/xlink">
 
 <g>
  <path d="m413.48 328.46c6.6016-0.011719 12.93-2.6484 17.594-7.3203 4.6641-4.6758 7.2852-11.008 7.2852-17.609v-90.516c-0.40234-8.6211-5.2344-16.422-12.777-20.625-7.5391-4.1992-16.715-4.1992-24.258 0-7.5391 4.2031-12.375 12.004-12.773 20.625v90.406c-0.015626 6.6289 2.6016 12.988 7.2773 17.684 4.6758 4.6953 11.027 7.3438 17.652 7.3555z"/>
  <path d="m473.85 188.14c-6.6055 0-12.938 2.6211-17.609 7.2852-4.6758 4.6641-7.3086 10.992-7.3242 17.594v90.406c-0.31641 6.8086 2.168 13.445 6.8711 18.375 4.7031 4.9258 11.223 7.7148 18.035 7.7148s13.328-2.7891 18.031-7.7148c4.707-4.9297 7.1875-11.566 6.8711-18.375v-90.406c0-6.5977-2.6211-12.926-7.2852-17.59-4.668-4.668-10.992-7.2891-17.59-7.2891z"/>
  <path d="m443.75 322.21c-5.4805 8.8594-14.559 14.875-24.852 16.473s-20.766-1.3867-28.672-8.168-12.449-16.68-12.438-27.098v-256.52c0-9.0586-4.8359-17.434-12.68-21.961-7.8477-4.5312-17.516-4.5312-25.363 0-7.8477 4.5273-12.68 12.902-12.68 21.961v192.66 0.48438c0.03125 0.35938 0.03125 0.71875 0 1.0781-0.09375 0.31641-0.21875 0.62109-0.37891 0.91406-0.14453 0.31641-0.34766 0.60938-0.58984 0.85938l-0.69922 0.75391h-0.003906c-0.23828 0.22266-0.50781 0.40625-0.80469 0.53906l-1.0234 0.42969h-2.0469v0.003906c-0.375 0.050781-0.75391 0.050781-1.1328 0l-0.86328-0.32422h0.003907c-0.32813-0.17969-0.63672-0.39453-0.91406-0.64844l-0.91797-0.64453c-0.21094-0.26562-0.39062-0.55469-0.53906-0.86328-0.16406-0.3125-0.30859-0.63672-0.42969-0.96875v-0.48438l-37.691-176.94c-1.9258-8.8672-8.4336-16.035-17.074-18.805-8.6445-2.7695-18.105-0.71484-24.824 5.3828-6.7188 6.1016-9.6719 15.324-7.75 24.191l41.031 192.02c0.29297 1.4922-0.058593 3.0352-0.96875 4.2539h48.461c4.9844 0.21875 8.9648 4.2227 9.1562 9.207 0.019531 11.809-3.3711 23.375-9.7578 33.309-6.3906 9.9336-15.512 17.812-26.266 22.691 26.223 6.7852 62.301 22.348 84.43 57.832 0.76172 1.2109 1.0039 2.6758 0.67969 4.0703-0.32031 1.3945-1.1875 2.6055-2.4023 3.3594-0.83984 0.51953-1.8086 0.80078-2.8008 0.80859-1.8594 0.003907-3.5898-0.95312-4.5742-2.5312-34.086-54.387-107.16-57.887-107.91-57.887-2.9727-0.11719-5.2891-2.625-5.168-5.5977 0.11719-2.9766 2.625-5.2891 5.5977-5.1719 0.53906 0 3.5547 0 8.293 0.69922v0.003907c0.73828-0.50781 1.5898-0.82031 2.4766-0.91797 12.047-0.83594 23.375-6.0195 31.879-14.59 9.2227-9.2188 14.527-21.641 14.809-34.68h-89.172c-6.9258 0-13.566 2.7539-18.465 7.6523-4.8984 4.8945-7.6484 11.539-7.6484 18.465v101.23c0.042969 34.391 13.723 67.359 38.039 91.676 24.316 24.316 57.285 37.996 91.676 38.039h38.445c34.391-0.042969 67.359-13.723 91.676-38.039 24.316-24.316 37.996-57.285 38.039-91.676v-79.801c-7.7266 7.5703-18.477 11.215-29.215 9.9062-10.734-1.3125-20.293-7.4336-25.977-16.637z"/>
  <use x="70" y="640.769531" xlink:href="#v"/>
  <use x="89.757812" y="640.769531" xlink:href="#b"/>
  <use x="103.035156" y="640.769531" xlink:href="#a"/>
  <use x="121.296875" y="640.769531" xlink:href="#h"/>
  <use x="139.464844" y="640.769531" xlink:href="#d"/>
  <use x="152.332031" y="640.769531" xlink:href="#a"/>
  <use x="170.59375" y="640.769531" xlink:href="#g"/>
  <use x="199.238281" y="640.769531" xlink:href="#f"/>
  <use x="218.511719" y="640.769531" xlink:href="#k"/>
  <use x="245.433594" y="640.769531" xlink:href="#j"/>
  <use x="265.953125" y="640.769531" xlink:href="#a"/>
  <use x="284.214844" y="640.769531" xlink:href="#b"/>
  <use x="297.492188" y="640.769531" xlink:href="#c"/>
  <use x="316.660156" y="640.769531" xlink:href="#g"/>
  <use x="345.304688" y="640.769531" xlink:href="#u"/>
  <use x="362.460937" y="640.769531" xlink:href="#h"/>
  <use x="380.628906" y="640.769531" xlink:href="#i"/>
  <use x="398.53125" y="640.769531" xlink:href="#a"/>
  <use x="416.792969" y="640.769531" xlink:href="#c"/>
  <use x="435.960938" y="640.769531" xlink:href="#f"/>
  <use x="455.230469" y="640.769531" xlink:href="#b"/>
  <use x="468.507812" y="640.769531" xlink:href="#t"/>
  <use x="477.738281" y="640.769531" xlink:href="#c"/>
  <use x="496.90625" y="640.769531" xlink:href="#i"/>
  <use x="70" y="667.691406" xlink:href="#s"/>
  <use x="81.714844" y="667.691406" xlink:href="#b"/>
  <use x="94.992188" y="667.691406" xlink:href="#e"/>
  <use x="113.488281" y="667.691406" xlink:href="#r"/>
  <use x="150.914062" y="667.691406" xlink:href="#d"/>
  <use x="163.785156" y="667.691406" xlink:href="#q"/>
  <use x="182.949219" y="667.691406" xlink:href="#a"/>
  <use x="210.582031" y="667.691406" xlink:href="#p"/>
  <use x="233.117188" y="667.691406" xlink:href="#e"/>
  <use x="251.613281" y="667.691406" xlink:href="#o"/>
  <use x="270.78125" y="667.691406" xlink:href="#c"/>
  <use x="299.320312" y="667.691406" xlink:href="#n"/>
  <use x="319.050781" y="667.691406" xlink:href="#b"/>
  <use x="332.328125" y="667.691406" xlink:href="#e"/>
  <use x="350.824219" y="667.691406" xlink:href="#m"/>
  <use x="360.054688" y="667.691406" xlink:href="#a"/>
  <use x="378.3125" y="667.691406" xlink:href="#l"/>
  <use x="394.273438" y="667.691406" xlink:href="#d"/>
 </g>
</svg>
