<?xml version="1.0" encoding="UTF-8"?>
<svg width="700pt" height="700pt" fill="#fff" version="1.1" viewBox="0 0 700 700" xmlns="http://www.w3.org/2000/svg" xmlns:xlink="http://www.w3.org/1999/xlink">

 <g>
  <path d="m522.8 311.63-57.371 26.211v0.003906c-9.0781 4.1367-19.395 4.6602-28.844 1.457-9.4492-3.2031-17.32-9.8867-22.012-18.691-4.6914-8.8047-5.8516-19.07-3.2383-28.699l56.773-210.71c2.1953-8.5977 0.73047-17.723-4.043-25.207-4.7734-7.4844-12.434-12.656-21.156-14.289-7.8477-1.4688-15.957 0.058594-22.73 4.2852-6.7734 4.2266-11.715 10.836-13.848 18.531l-49.445 178.72h-0.003906c-0.88672 3.2891-4.2734 5.2383-7.5625 4.3477-3.293-0.88672-5.2383-4.2734-4.3516-7.5625l49.387-178.72 5.4844-19.602c2.1445-8.0625 1.0703-16.645-3-23.93-4.0703-7.2812-10.812-12.695-18.805-15.094l-3.5156-1.0703c-8.1367-2.3906-16.891-1.4609-24.344 2.5781-7.457 4.0391-13.012 10.867-15.453 18.988l-57.309 191.29c-0.74219 2.6523-3.207 4.4492-5.9609 4.3477-2.8555 0.0625-5.3555-1.9102-5.957-4.707l-43.906-188.38c-2.0625-8.8672-7.6875-16.492-15.547-21.086-7.8359-4.6914-17.27-5.9023-26.035-3.3359-8.1953 2.3945-15.16 7.8477-19.453 15.23-4.2891 7.3867-5.5781 16.137-3.6016 24.445l41.703 176.52c0.77344 3.2891-1.2695 6.582-4.5586 7.3555-3.2891 0.77344-6.5859-1.2656-7.3594-4.5586l-31.273-130.94c-2.5039-11.312-10.848-20.434-21.895-23.922-11.047-3.4922-23.117-0.82422-31.664 7-8.5469 7.8203-12.27 19.609-9.7695 30.922l31.754 151.38c0 1.0117 12.688 76.434 7.0898 141.73h-0.003906c-2.1094 22.965 4.2461 45.91 17.875 64.52 1.1914 1.668 2.5039 3.3359 3.8711 4.9453 13.137 16.004 21.406 35.438 23.832 56 1.5 12.641 1.5391 25.414 0.11719 38.066h233.59v-31.812c0.027344-29.77 14.539-57.66 38.902-74.766l157.16-110.51c2.3867-1.6562 2.9961-4.9219 1.3672-7.3281-8.9961-13.426-22.484-23.207-38.039-27.594-15.555-4.3906-32.164-3.0977-46.852 3.6445z"/>
  <use x="91.417969" y="649.363281" xlink:href="#v"/>
  <use x="113.277344" y="649.363281" xlink:href="#b"/>
  <use x="127.96875" y="649.363281" xlink:href="#a"/>
  <use x="148.167969" y="649.363281" xlink:href="#h"/>
  <use x="168.269531" y="649.363281" xlink:href="#d"/>
  <use x="182.507812" y="649.363281" xlink:href="#a"/>
  <use x="202.710938" y="649.363281" xlink:href="#g"/>
  <use x="234.40625" y="649.363281" xlink:href="#f"/>
  <use x="255.726562" y="649.363281" xlink:href="#k"/>
  <use x="285.515625" y="649.363281" xlink:href="#j"/>
  <use x="308.21875" y="649.363281" xlink:href="#a"/>
  <use x="328.421875" y="649.363281" xlink:href="#b"/>
  <use x="343.109375" y="649.363281" xlink:href="#c"/>
  <use x="364.316406" y="649.363281" xlink:href="#g"/>
  <use x="396.007812" y="649.363281" xlink:href="#u"/>
  <use x="414.988281" y="649.363281" xlink:href="#h"/>
  <use x="435.089844" y="649.363281" xlink:href="#i"/>
  <use x="454.898438" y="649.363281" xlink:href="#a"/>
  <use x="475.101563" y="649.363281" xlink:href="#c"/>
  <use x="496.308594" y="649.363281" xlink:href="#f"/>
  <use x="517.628906" y="649.363281" xlink:href="#b"/>
  <use x="532.320312" y="649.363281" xlink:href="#t"/>
  <use x="542.53125" y="649.363281" xlink:href="#c"/>
  <use x="563.738281" y="649.363281" xlink:href="#i"/>
  <use x="91.417969" y="679.148438" xlink:href="#s"/>
  <use x="104.375" y="679.148438" xlink:href="#b"/>
  <use x="119.066406" y="679.148438" xlink:href="#e"/>
  <use x="139.53125" y="679.148438" xlink:href="#r"/>
  <use x="180.9375" y="679.148438" xlink:href="#d"/>
  <use x="195.179688" y="679.148438" xlink:href="#q"/>
  <use x="216.382813" y="679.148438" xlink:href="#a"/>
  <use x="246.957031" y="679.148438" xlink:href="#p"/>
  <use x="271.886719" y="679.148438" xlink:href="#e"/>
  <use x="292.351562" y="679.148438" xlink:href="#o"/>
  <use x="313.554688" y="679.148438" xlink:href="#c"/>
  <use x="345.132812" y="679.148438" xlink:href="#n"/>
  <use x="366.964844" y="679.148438" xlink:href="#b"/>
  <use x="381.652344" y="679.148438" xlink:href="#e"/>
  <use x="402.117188" y="679.148438" xlink:href="#m"/>
  <use x="412.328125" y="679.148438" xlink:href="#a"/>
  <use x="432.53125" y="679.148438" xlink:href="#l"/>
  <use x="450.1875" y="679.148438" xlink:href="#d"/>
 </g>
</svg>
